<svg width="827.375px" height="148.64000549316407px" xmlns="http://www.w3.org/2000/svg" viewBox="-163.6875 0.6799972534179659 827.375 148.64000549316407" style="background: none;" preserveAspectRatio="xMidYMid"><defs><linearGradient id="editing-gradient-gradient" x1="0" x2="1" y1="0.5" y2="0.5" gradientUnits="objectBoundingBox"><stop offset="0" stop-color="#ef3d7e"></stop><stop offset="1" stop-color="#334983"></stop></linearGradient></defs><g><g transform="translate(-46.299986124038696, 112.30000305175781)"><path d="M18.14 0L0.49 0L10.77-53.46L28.59-53.46L18.14 0ZM88.70 1.62L88.70 1.62L88.70 1.62Q78.89 1.62 78.89-5.99L78.89-5.99L78.89-5.99Q78.89-9.31 80.31-15.75L80.31-15.75L80.31-15.75Q81.73-22.19 82.22-24.79L82.22-24.79L82.22-24.79Q83.35-30.70 83.35-32.56L83.35-32.56L83.35-32.56Q83.35-36.69 80.27-36.69L80.27-36.69L80.27-36.69Q78.25-36.69 76.30-33.90L76.30-33.90L76.30-33.90Q74.36-31.10 73.47-25.52L73.47-25.52L68.45 0L52.65 1.62L57.02-20.41L57.02-20.41Q57.75-24.06 58.40-28.19L58.40-28.19L58.40-28.19Q59.05-32.32 59.05-32.97L59.05-32.97L59.05-32.97Q59.05-36.69 56.30-36.69L56.30-36.69L56.30-36.69Q54.43-36.69 52.41-33.94L52.41-33.94L52.41-33.94Q50.38-31.19 49.25-25.52L49.25-25.52L44.31 0L28.35 1.62L36.86-41.31L50.06-42.93L48.68-34.75L48.68-34.75Q50.79-39.12 54.67-41.03L54.67-41.03L54.67-41.03Q58.56-42.93 64.64-42.93L64.64-42.93L64.64-42.93Q68.12-42.93 70.39-41.23L70.39-41.23L70.39-41.23Q72.66-39.53 73.39-36.77L73.39-36.77L73.39-36.77Q74.76-39.61 78.29-41.27L78.29-41.27L78.29-41.27Q81.81-42.93 86.14-42.93L86.14-42.93L86.14-42.93Q90.48-42.93 92.62-42.00L92.62-42.00L92.62-42.00Q94.77-41.07 96.07-39.53L96.07-39.53L96.07-39.53Q98.25-36.69 98.25-31.51L98.25-31.51L98.25-31.51Q98.25-26.41 96.07-15.79L96.07-15.79L96.07-15.79Q94.93-10.61 94.93-8.71L94.93-8.71L94.93-8.71Q94.93-6.80 96.03-5.67L96.03-5.67L96.03-5.67Q97.12-4.54 98.74-4.37L98.74-4.37L98.74-4.37Q97.93-1.62 95.13 0L95.13 0L95.13 0Q92.34 1.62 88.70 1.62ZM108.50-2.43L108.50-2.43L108.50-2.43Q106.60-4.54 105.75-7.86L105.75-7.86L105.75-7.86Q104.90-11.18 104.90-16.61L104.90-16.61L104.90-16.61Q104.90-22.03 106.76-26.97L106.76-26.97L106.76-26.97Q108.62-31.91 112.02-35.48L112.02-35.48L112.02-35.48Q118.99-42.93 130.49-42.93L130.49-42.93L130.49-42.93Q134.62-42.93 137.62-41.55L137.62-41.55L151.47-42.93L145.48-11.34L145.48-11.34Q145.23-10.37 145.23-8.59L145.23-8.59L145.23-8.59Q145.23-6.80 146.33-5.67L146.33-5.67L146.33-5.67Q147.42-4.54 149.04-4.37L149.04-4.37L149.04-4.37Q148.23-1.62 145.27 0L145.27 0L145.27 0Q142.32 1.62 139.00 1.62L139.00 1.62L139.00 1.62Q135.68 1.62 133.45 0.36L133.45 0.36L133.45 0.36Q131.22-0.89 130.57-3.00L130.57-3.00L130.57-3.00Q129.28-0.97 126.52 0.32L126.52 0.32L126.52 0.32Q123.77 1.62 120.08 1.62L120.08 1.62L120.08 1.62Q116.40 1.62 113.40 0.65L113.40 0.65L113.40 0.65Q110.40-0.32 108.50-2.43ZM125.59-35.32L125.59-35.32L125.59-35.32Q124.66-33.86 123.85-31.39L123.85-31.39L123.85-31.39Q123.04-28.92 121.70-22.32L121.70-22.32L121.70-22.32Q120.37-15.71 120.37-11.02L120.37-11.02L120.37-11.02Q120.37-6.32 121.09-4.94L121.09-4.94L121.09-4.94Q121.82-3.56 123.12-3.56L123.12-3.56L123.12-3.56Q125.71-3.56 127.62-6.03L127.62-6.03L127.62-6.03Q129.52-8.51 130.25-12.88L130.25-12.88L134.54-36.61L134.54-36.61Q132.84-38.07 130.86-38.07L130.86-38.07L130.86-38.07Q128.87-38.07 127.70-37.42L127.70-37.42L127.70-37.42Q126.52-36.77 125.59-35.32ZM161.27-33.86L161.27-33.86L161.27-33.86Q164.03-37.75 168.20-40.34L168.20-40.34L168.20-40.34Q172.37-42.93 177.47-42.93L177.47-42.93L177.47-42.93Q182.57-42.93 185.00-41.31L185.00-41.31L200.88-42.93L195.37-11.83L195.37-11.83Q192.54 4.05 186.54 10.29L186.54 10.29L186.54 10.29Q180.79 16.20 169.61 16.20L169.61 16.20L169.61 16.20Q161.11 16.20 156.25 13.53L156.25 13.53L156.25 13.53Q151.39 10.85 151.39 6.40L151.39 6.40L151.39 6.40Q151.39 3.08 153.90 1.17L153.90 1.17L153.90 1.17Q156.41-0.73 160.30-0.73L160.30-0.73L160.30-0.73Q163.70-0.73 166.29 0.81L166.29 0.81L166.29 0.81Q167.83 1.62 168.56 2.75L168.56 2.75L168.56 2.75Q166.70 4.37 166.70 7.05L166.70 7.05L166.70 7.05Q166.70 10.53 169.94 10.53L169.94 10.53L169.94 10.53Q175.37 10.53 178.44-2.27L178.44-2.27L178.44-2.27Q179.33-5.75 180.06-9.23L180.06-9.23L180.06-9.23Q176.42-4.78 168.16-4.78L168.16-4.78L168.16-4.78Q162.41-4.78 159.08-7.53L159.08-7.53L159.08-7.53Q155.76-10.29 155.76-16.77L155.76-16.77L155.76-16.77Q155.76-20.82 157.14-25.39L157.14-25.39L157.14-25.39Q158.52-29.97 161.27-33.86ZM171.80-16.52L171.80-16.52L171.80-16.52Q171.80-11.02 174.64-11.02L174.64-11.02L174.64-11.02Q176.58-11.02 178.44-13.12L178.44-13.12L178.44-13.12Q179.90-14.82 180.47-17.33L180.47-17.33L184.60-38.15L184.60-38.15Q184.19-38.23 183.79-38.39L183.79-38.39L183.79-38.39Q182.98-38.72 181.93-38.72L181.93-38.72L181.93-38.72Q176.99-38.72 174.07-30.62L174.07-30.62L174.07-30.62Q171.80-24.30 171.80-16.52ZM236.84-13.69L236.84-13.69L236.84-13.69Q238.87-12.31 238.87-9.27L238.87-9.27L238.87-9.27Q238.87-6.24 237.33-4.29L237.33-4.29L237.33-4.29Q235.79-2.35 233.28-1.05L233.28-1.05L233.28-1.05Q228.10 1.62 222.51 1.62L222.51 1.62L222.51 1.62Q216.92 1.62 213.64 0.41L213.64 0.41L213.64 0.41Q210.36-0.81 208.17-3.08L208.17-3.08L208.17-3.08Q203.88-7.37 203.88-15.23L203.88-15.23L203.88-15.23Q203.88-27.46 210.52-34.91L210.52-34.91L210.52-34.91Q217.65-42.93 230.04-42.93L230.04-42.93L230.04-42.93Q237.74-42.93 241.54-39.69L241.54-39.69L241.54-39.69Q244.38-37.26 244.38-33.29L244.38-33.29L244.38-33.29Q244.38-19.04 219.75-19.04L219.75-19.04L219.75-19.04Q219.43-16.93 219.43-15.15L219.43-15.15L219.43-15.15Q219.43-11.42 221.09-10.00L221.09-10.00L221.09-10.00Q222.75-8.59 225.83-8.59L225.83-8.59L225.83-8.59Q228.91-8.59 232.19-10.00L232.19-10.00L232.19-10.00Q235.47-11.42 236.84-13.69ZM220.32-22.52L220.32-22.52L220.32-22.52Q226.07-22.52 229.39-26.08L229.39-26.08L229.39-26.08Q232.71-29.48 232.71-34.91L232.71-34.91L232.71-34.91Q232.71-36.77 232.02-37.79L232.02-37.79L232.02-37.79Q231.34-38.80 229.96-38.80L229.96-38.80L229.96-38.80Q228.58-38.80 227.41-38.27L227.41-38.27L227.41-38.27Q226.23-37.75 225.02-35.96L225.02-35.96L225.02-35.96Q222.02-31.91 220.32-22.52ZM271.35-28.43L271.35-28.43L271.35-28.43Q272.48-31.43 272.48-34.02L272.48-34.02L272.48-34.02Q272.48-38.80 268.60-38.80L268.60-38.80L268.60-38.80Q266.57-38.80 264.91-36.98L264.91-36.98L264.91-36.98Q263.25-35.15 263.25-32.89L263.25-32.89L263.25-32.89Q263.25-31.27 264.55-29.97L264.55-29.97L264.55-29.97Q266.41-28.19 271.19-25.27L271.19-25.27L271.19-25.27Q275.97-22.36 277.79-19.97L277.79-19.97L277.79-19.97Q279.61-17.58 279.61-14.30L279.61-14.30L279.61-14.30Q279.61-11.02 278.03-8.02L278.03-8.02L278.03-8.02Q276.45-5.02 273.62-2.92L273.62-2.92L273.62-2.92Q267.54 1.62 257.82 1.62L257.82 1.62L257.82 1.62Q252.56 1.62 248.51-1.13L248.51-1.13L248.51-1.13Q244.46-3.81 244.46-6.97L244.46-6.97L244.46-6.97Q244.46-10.13 246.77-11.99L246.77-11.99L246.77-11.99Q249.08-13.85 252.48-13.85L252.48-13.85L252.48-13.85Q255.88-13.85 257.99-12.55L257.99-12.55L257.99-12.55Q256.93-9.88 256.93-8.10L256.93-8.10L256.93-8.10Q256.93-2.75 261.47-2.75L261.47-2.75L261.47-2.75Q263.41-2.75 264.71-3.97L264.71-3.97L264.71-3.97Q266.00-5.18 266.00-7.29L266.00-7.29L266.00-7.29Q266.00-11.42 259.04-15.79L259.04-15.79L259.04-15.79Q253.37-19.52 252.07-20.98L252.07-20.98L252.07-20.98Q249.89-23.57 249.89-26.81L249.89-26.81L249.89-26.81Q249.89-30.05 251.42-33.13L251.42-33.13L251.42-33.13Q252.96-36.21 255.80-38.39L255.80-38.39L255.80-38.39Q261.71-42.93 272.00-42.93L272.00-42.93L272.00-42.93Q277.26-42.93 280.38-40.82L280.38-40.82L280.38-40.82Q283.50-38.72 283.50-35.15L283.50-35.15L283.50-35.15Q283.50-31.59 281.35-29.57L281.35-29.57L281.35-29.57Q279.21-27.54 275.32-27.54L275.32-27.54L275.32-27.54Q272.65-27.54 271.35-28.43ZM335.99-26.08L352.35-27.54L352.35-27.54Q346.52-14.74 346.52 0.08L346.52 0.08L346.52 0.08Q344.33 1.62 341.13 1.62L341.13 1.62L341.13 1.62Q337.93 1.62 335.91 0.12L335.91 0.12L335.91 0.12Q333.88-1.38 333.48-2.92L333.48-2.92L333.48-2.92Q331.45-0.81 328.17 0.41L328.17 0.41L328.17 0.41Q324.89 1.62 321.41 1.62L321.41 1.62L321.41 1.62Q317.92 1.62 314.89 0.49L314.89 0.49L314.89 0.49Q311.85-0.65 309.50-3.16L309.50-3.16L309.50-3.16Q304.32-8.67 304.32-19.12L304.32-19.12L304.32-19.12Q304.32-35.32 312.98-45.04L312.98-45.04L312.98-45.04Q321.89-55.08 337.69-55.08L337.69-55.08L337.69-55.08Q348.62-55.08 352.51-49.41L352.51-49.41L352.51-49.41Q353.73-47.63 353.73-45.48L353.73-45.48L353.73-45.48Q353.73-43.34 352.80-41.51L352.80-41.51L352.80-41.51Q351.86-39.69 350.41-38.23L350.41-38.23L350.41-38.23Q346.92-34.99 342.63-34.99L342.63-34.99L342.63-34.99Q340.93-34.99 339.31-35.56L339.31-35.56L339.31-35.56Q339.63-37.99 339.63-40.82L339.63-40.82L339.63-40.82Q339.63-43.66 339.43-44.95L339.43-44.95L339.43-44.95Q339.23-46.25 338.74-47.30L338.74-47.30L338.74-47.30Q337.69-49.49 335.38-49.49L335.38-49.49L335.38-49.49Q333.07-49.49 330.52-47.02L330.52-47.02L330.52-47.02Q327.97-44.55 325.94-40.50L325.94-40.50L325.94-40.50Q321.49-31.43 321.49-20.49L321.49-20.49L321.49-20.49Q321.49-15.47 323.43-11.91L323.43-11.91L323.43-11.91Q325.54-8.02 329.26-8.02L329.26-8.02L329.26-8.02Q330.56-8.02 331.74-8.67L331.74-8.67L331.74-8.67Q332.91-9.31 333.40-9.80L333.40-9.80L335.99-26.08ZM359.84-2.43L359.84-2.43L359.84-2.43Q357.94-4.54 357.09-7.86L357.09-7.86L357.09-7.86Q356.24-11.18 356.24-16.61L356.24-16.61L356.24-16.61Q356.24-22.03 358.10-26.97L358.10-26.97L358.10-26.97Q359.96-31.91 363.37-35.48L363.37-35.48L363.37-35.48Q370.33-42.93 381.83-42.93L381.83-42.93L381.83-42.93Q385.97-42.93 388.96-41.55L388.96-41.55L402.81-42.93L396.82-11.34L396.82-11.34Q396.58-10.37 396.58-8.59L396.58-8.59L396.58-8.59Q396.58-6.80 397.67-5.67L397.67-5.67L397.67-5.67Q398.76-4.54 400.38-4.37L400.38-4.37L400.38-4.37Q399.57-1.62 396.62 0L396.62 0L396.62 0Q393.66 1.62 390.34 1.62L390.34 1.62L390.34 1.62Q387.02 1.62 384.79 0.36L384.79 0.36L384.79 0.36Q382.56-0.89 381.92-3.00L381.92-3.00L381.92-3.00Q380.62-0.97 377.87 0.32L377.87 0.32L377.87 0.32Q375.11 1.62 371.43 1.62L371.43 1.62L371.43 1.62Q367.74 1.62 364.74 0.65L364.74 0.65L364.74 0.65Q361.75-0.32 359.84-2.43ZM376.93-35.32L376.93-35.32L376.93-35.32Q376.00-33.86 375.19-31.39L375.19-31.39L375.19-31.39Q374.38-28.92 373.05-22.32L373.05-22.32L373.05-22.32Q371.71-15.71 371.71-11.02L371.71-11.02L371.71-11.02Q371.71-6.32 372.44-4.94L372.44-4.94L372.44-4.94Q373.17-3.56 374.46-3.56L374.46-3.56L374.46-3.56Q377.06-3.56 378.96-6.03L378.96-6.03L378.96-6.03Q380.86-8.51 381.59-12.88L381.59-12.88L385.88-36.61L385.88-36.61Q384.18-38.07 382.20-38.07L382.20-38.07L382.20-38.07Q380.21-38.07 379.04-37.42L379.04-37.42L379.04-37.42Q377.87-36.77 376.93-35.32ZM426.55-4.46L426.55-4.46L426.55-4.46Q424.04 1.62 416.02 1.62L416.02 1.62L416.02 1.62Q411.97 1.62 409.37-1.22L409.37-1.22L409.37-1.22Q407.27-3.56 407.27-6.24L407.27-6.24L407.27-6.24Q407.27-12.31 410.10-25.60L410.10-25.60L416.02-56.70L432.46-58.32L424.60-17.33L424.60-17.33Q423.23-11.34 423.23-9.23L423.23-9.23L423.23-9.23Q423.23-4.62 426.55-4.46ZM452.79-4.46L452.79-4.46L452.79-4.46Q450.28 1.62 442.26 1.62L442.26 1.62L442.26 1.62Q438.21 1.62 435.62-1.22L435.62-1.22L435.62-1.22Q433.51-3.56 433.51-6.24L433.51-6.24L433.51-6.24Q433.51-12.31 436.35-25.60L436.35-25.60L442.26-56.70L458.70-58.32L450.85-17.33L450.85-17.33Q449.47-11.34 449.47-9.23L449.47-9.23L449.47-9.23Q449.47-4.62 452.79-4.46ZM492.48-13.69L492.48-13.69L492.48-13.69Q494.50-12.31 494.50-9.27L494.50-9.27L494.50-9.27Q494.50-6.24 492.97-4.29L492.97-4.29L492.97-4.29Q491.43-2.35 488.92-1.05L488.92-1.05L488.92-1.05Q483.73 1.62 478.14 1.62L478.14 1.62L478.14 1.62Q472.55 1.62 469.27 0.41L469.27 0.41L469.27 0.41Q465.99-0.81 463.81-3.08L463.81-3.08L463.81-3.08Q459.51-7.37 459.51-15.23L459.51-15.23L459.51-15.23Q459.51-27.46 466.16-34.91L466.16-34.91L466.16-34.91Q473.28-42.93 485.68-42.93L485.68-42.93L485.68-42.93Q493.37-42.93 497.18-39.69L497.18-39.69L497.18-39.69Q500.01-37.26 500.01-33.29L500.01-33.29L500.01-33.29Q500.01-19.04 475.39-19.04L475.39-19.04L475.39-19.04Q475.06-16.93 475.06-15.15L475.06-15.15L475.06-15.15Q475.06-11.42 476.73-10.00L476.73-10.00L476.73-10.00Q478.39-8.59 481.46-8.59L481.46-8.59L481.46-8.59Q484.54-8.59 487.82-10.00L487.82-10.00L487.82-10.00Q491.10-11.42 492.48-13.69ZM475.96-22.52L475.96-22.52L475.96-22.52Q481.71-22.52 485.03-26.08L485.03-26.08L485.03-26.08Q488.35-29.48 488.35-34.91L488.35-34.91L488.35-34.91Q488.35-36.77 487.66-37.79L487.66-37.79L487.66-37.79Q486.97-38.80 485.60-38.80L485.60-38.80L485.60-38.80Q484.22-38.80 483.04-38.27L483.04-38.27L483.04-38.27Q481.87-37.75 480.65-35.96L480.65-35.96L480.65-35.96Q477.66-31.91 475.96-22.52ZM528.12-22.76L528.12-22.76L528.12-22.76Q531.04-27.95 531.04-33.21L531.04-33.21L531.04-33.21Q531.04-36.69 528.52-36.69L528.52-36.69L528.52-36.69Q526.58-36.69 524.56-33.37L524.56-33.37L524.56-33.37Q522.45-30.05 521.80-25.76L521.80-25.76L517.59 0L500.82 1.62L509.08-41.31L522.45-42.93L520.99-34.75L520.99-34.75Q524.96-42.93 533.87-42.93L533.87-42.93L533.87-42.93Q538.57-42.93 541.12-40.50L541.12-40.50L541.12-40.50Q543.67-38.07 543.67-33.09L543.67-33.09L543.67-33.09Q543.67-28.11 540.39-24.95L540.39-24.95L540.39-24.95Q537.11-21.79 531.52-21.79L531.52-21.79L531.52-21.79Q529.09-21.79 528.12-22.76ZM570.73-9.15L570.73-9.15L570.73-9.15Q566.51-4.78 558.82-4.78L558.82-4.78L558.82-4.78Q549.18-4.78 547.15-11.83L547.15-11.83L547.15-11.83Q546.51-13.93 546.51-16.28L546.51-16.28L546.51-16.28Q546.51-18.63 546.99-21.06L546.99-21.06L550.80-41.31L567.24-42.93L562.79-19.36L562.79-19.36Q562.63-18.31 562.38-17.17L562.38-17.17L562.38-17.17Q562.14-16.04 562.14-14.86L562.14-14.86L562.14-14.86Q562.14-13.69 562.54-12.92L562.54-12.92L562.54-12.92Q562.95-12.15 563.52-11.66L563.52-11.66L563.52-11.66Q564.49-11.02 566.23-11.02L566.23-11.02L566.23-11.02Q567.97-11.02 569.47-13.12L569.47-13.12L569.47-13.12Q570.97-15.23 571.70-18.87L571.70-18.87L576.15-41.31L592.11-42.93L586.03-11.10L586.03-11.10Q583.04 4.46 576.88 10.61L576.88 10.61L576.88 10.61Q573.72 13.77 569.63 15.03L569.63 15.03L569.63 15.03Q565.54 16.28 560.28 16.28L560.28 16.28L560.28 16.28Q551.77 16.28 546.91 13.61L546.91 13.61L546.91 13.61Q542.05 10.94 542.05 6.48L542.05 6.48L542.05 6.48Q542.05 3.16 544.56 1.26L544.56 1.26L544.56 1.26Q547.07-0.65 550.96-0.65L550.96-0.65L550.96-0.65Q554.36-0.65 556.96 0.81L556.96 0.81L556.96 0.81Q558.50 1.70 559.22 2.83L559.22 2.83L559.22 2.83Q557.36 4.46 557.36 7.13L557.36 7.13L557.36 7.13Q557.36 10.69 560.60 10.69L560.60 10.69L560.60 10.69Q565.95 10.69 569.02-1.62L569.02-1.62L569.02-1.62Q569.92-5.27 570.73-9.15Z" fill="url(#editing-gradient-gradient)"></path></g></g><style>text {
  font-size: 64px;
  font-family: Arial Black;
  dominant-baseline: central;
  text-anchor: middle;
}</style></svg>